<svg width="468" height="190.8" viewBox="0 0 468 190.8" version="1.1" xmlns="http://www.w3.org/2000/svg" xmlns:xlink="http://www.w3.org/1999/xlink" xmlns:figma="http://www.figma.com/figma/ns">
<title>RobinHood3</title>
<desc>Created using Figma</desc>
<g id="Canvas" transform="matrix(0.4 0 0 0.4 -548.4 -4502.8)" figma:type="canvas">
<rect x="1371" y="11257" width="1170" height="477" fill="#E5E5E5"/>
<mask id="mask0_alpha" mask-type="alpha">
<path d="M 1371 11257L 2541 11257L 2541 11734L 1371 11734L 1371 11257Z" fill="#FFFFFF"/>
</mask>
<g id="RobinHood3" style="mix-blend-mode:normal;" mask="url(#mask0_alpha)" figma:type="frame">
<path d="M 1371 11257L 2541 11257L 2541 11734L 1371 11734L 1371 11257Z" fill="#FFFFFF"/>
<g id="Rectangle 8" style="mix-blend-mode:normal;" figma:type="vector">
<use xlink:href="#path0_fill" transform="matrix(-1 0 0 1 2541.47 11565.5)" fill="#67D94C" style="mix-blend-mode:normal;"/>
</g>
<g id="-24--josh-testing-1---brilliant-math---science-wiki" style="mix-blend-mode:normal;" figma:type="frame">
<g id="Group" style="mix-blend-mode:normal;" figma:type="frame">
<g id="Vector" style="mix-blend-mode:normal;" figma:type="vector">
<use xlink:href="#path1_fill" transform="matrix(1 0 0 -1 1409 11516)" fill="#333333" style="mix-blend-mode:normal;"/>
</g>
</g>
</g>
<g id="-24--josh-testing-1---brilliant-math---science-wiki" style="mix-blend-mode:normal;" figma:type="frame">
<g id="Group" style="mix-blend-mode:normal;" figma:type="frame">
<g id="Vector" style="mix-blend-mode:normal;" figma:type="vector">
<use xlink:href="#path1_fill" transform="matrix(1 0 0 -1 1909 11516)" fill="#333333" style="mix-blend-mode:normal;"/>
</g>
</g>
</g>
<g id="-24--josh-testing-1---brilliant-math---science-wiki" style="mix-blend-mode:normal;" figma:type="frame">
<g id="Group" style="mix-blend-mode:normal;" figma:type="frame">
<g id="Vector" style="mix-blend-mode:normal;" figma:type="vector">
<use xlink:href="#path1_fill" transform="matrix(1 0 0 -1 2399 11516)" fill="#333333" style="mix-blend-mode:normal;"/>
</g>
</g>
</g>
</g>
<g id="Line 8" style="mix-blend-mode:normal;" figma:type="vector">
<use xlink:href="#path2_stroke" transform="matrix(6.12323e-17 1 -1 6.12323e-17 1473 11323)" fill="#333333" style="mix-blend-mode:normal;"/>
</g>
<g id="Line 8" style="mix-blend-mode:normal;" figma:type="vector">
<use xlink:href="#path2_stroke" transform="matrix(6.12323e-17 1 -1 6.12323e-17 1597 11323)" fill="#333333" style="mix-blend-mode:normal;"/>
</g>
<g id="Line 8" style="mix-blend-mode:normal;" figma:type="vector">
<use xlink:href="#path2_stroke" transform="matrix(6.12323e-17 1 -1 6.12323e-17 1597 11323)" fill="#333333" style="mix-blend-mode:normal;"/>
</g>
<g id="Line 8" style="mix-blend-mode:normal;" figma:type="vector">
<use xlink:href="#path2_stroke" transform="matrix(6.12323e-17 1 -1 6.12323e-17 1721 11323)" fill="#333333" style="mix-blend-mode:normal;"/>
</g>
<g id="Line 8" style="mix-blend-mode:normal;" figma:type="vector">
<use xlink:href="#path2_stroke" transform="matrix(6.12323e-17 1 -1 6.12323e-17 1721 11323)" fill="#333333" style="mix-blend-mode:normal;"/>
</g>
<g id="Line 8" style="mix-blend-mode:normal;" figma:type="vector">
<use xlink:href="#path2_stroke" transform="matrix(6.12323e-17 1 -1 6.12323e-17 1845 11323)" fill="#333333" style="mix-blend-mode:normal;"/>
</g>
<g id="Line 8" style="mix-blend-mode:normal;" figma:type="vector">
<use xlink:href="#path2_stroke" transform="matrix(6.12323e-17 1 -1 6.12323e-17 1845 11323)" fill="#333333" style="mix-blend-mode:normal;"/>
</g>
<g id="Line 8" style="mix-blend-mode:normal;" figma:type="vector">
<use xlink:href="#path2_stroke" transform="matrix(6.12323e-17 1 -1 6.12323e-17 1969 11323)" fill="#333333" style="mix-blend-mode:normal;"/>
</g>
<g id="Line 8" style="mix-blend-mode:normal;" figma:type="vector">
<use xlink:href="#path2_stroke" transform="matrix(6.12323e-17 1 -1 6.12323e-17 1969 11323)" fill="#333333" style="mix-blend-mode:normal;"/>
</g>
<g id="Line 8" style="mix-blend-mode:normal;" figma:type="vector">
<use xlink:href="#path2_stroke" transform="matrix(6.12323e-17 1 -1 6.12323e-17 2093 11323)" fill="#333333" style="mix-blend-mode:normal;"/>
</g>
<g id="Line 8" style="mix-blend-mode:normal;" figma:type="vector">
<use xlink:href="#path2_stroke" transform="matrix(6.12323e-17 1 -1 6.12323e-17 2093 11323)" fill="#333333" style="mix-blend-mode:normal;"/>
</g>
<g id="Line 8" style="mix-blend-mode:normal;" figma:type="vector">
<use xlink:href="#path2_stroke" transform="matrix(6.12323e-17 1 -1 6.12323e-17 2217 11323)" fill="#333333" style="mix-blend-mode:normal;"/>
</g>
<g id="Line 8" style="mix-blend-mode:normal;" figma:type="vector">
<use xlink:href="#path2_stroke" transform="matrix(6.12323e-17 1 -1 6.12323e-17 2217 11323)" fill="#333333" style="mix-blend-mode:normal;"/>
</g>
<g id="Line 8" style="mix-blend-mode:normal;" figma:type="vector">
<use xlink:href="#path2_stroke" transform="matrix(6.12323e-17 1 -1 6.12323e-17 2341 11323)" fill="#333333" style="mix-blend-mode:normal;"/>
</g>
<g id="Line 8" style="mix-blend-mode:normal;" figma:type="vector">
<use xlink:href="#path2_stroke" transform="matrix(6.12323e-17 1 -1 6.12323e-17 2341 11323)" fill="#333333" style="mix-blend-mode:normal;"/>
</g>
<g id="Line 8" style="mix-blend-mode:normal;" figma:type="vector">
<use xlink:href="#path2_stroke" transform="matrix(6.12323e-17 1 -1 6.12323e-17 2465 11323)" fill="#333333" style="mix-blend-mode:normal;"/>
</g>
</g>
<defs>
<path id="path0_fill" d="M 0 5.42364C 0 5.42364 106.378 8.13545 174.541 8.13545C 286.906 8.13545 319.905 8.13545 432.27 8.13545C 526.145 8.13545 608.777 13.5591 702.652 13.5591C 832.086 13.5591 904.654 2.71182 1034.09 2.71182C 1135.07 2.71182 1191.69 0 1292.68 0C 1373.64 0 1500 8.13545 1500 8.13545L 1500 169L 0 169L 0 5.42364Z"/>
<path id="path1_fill" d="M 1.21951 30.5488C 1.21951 33.313 2.3374 35.5285 4.57317 37.1951C 6.80894 38.8618 9.85772 39.6951 13.7195 39.6951C 16.687 39.6951 19.1463 39.2073 21.0976 38.2317L 21.8293 37.8659C 23.7398 39.2886 25.7927 40 27.9878 40C 29.126 40 30.0203 39.7154 30.6707 39.1463C 31.3211 38.5772 31.748 38.0285 31.9512 37.5C 32.1545 36.9715 32.2358 36.4634 32.1951 35.9756C 32.1951 35.0813 31.9106 34.3496 31.3415 33.7805C 30.7724 33.2114 30.0407 32.9268 29.1463 32.9268C 28.1707 32.9268 27.4187 33.2317 26.8902 33.8415C 26.3618 34.4512 26.0976 35.122 26.0976 35.8537C 26.0976 36.2602 26.1789 36.5244 26.3415 36.6463C 26.4228 36.687 26.4024 36.687 26.2805 36.6463C 26.1992 36.6463 26.0569 36.626 25.8537 36.5854C 24.8374 36.3008 24.2886 36.1179 24.2073 36.0366C 25.3049 34.5325 25.9553 33.2724 26.1585 32.2561C 26.2398 31.7276 26.2805 31.1585 26.2805 30.5488C 26.2805 28.1098 25.4268 26.1179 23.7195 24.5732C 21.4837 22.4187 18.0081 21.3415 13.2927 21.3415C 10.7317 21.3415 8.45529 21.8089 6.46342 22.7439C 6.17886 22.1748 6.03659 21.687 6.03659 21.2805C 6.03659 19.5325 6.86992 18.4146 8.53659 17.9268C 8.78049 17.8455 10.6707 17.8049 14.2073 17.8049C 14.6138 17.8049 15.3252 17.8049 16.3415 17.8049C 17.3577 17.8049 18.0894 17.8049 18.5366 17.8049C 18.9837 17.8049 19.6341 17.7642 20.4878 17.6829C 21.3415 17.6016 22.0325 17.5203 22.561 17.439C 23.0894 17.3577 23.7398 17.1951 24.5122 16.9512C 25.2846 16.7073 25.9756 16.4431 26.5854 16.1585C 29.7561 14.4512 31.3415 11.748 31.3415 8.04878C 31.3415 6.21951 30.5691 4.6748 29.0244 3.41463C 26.2602 1.13821 21.8089 0 15.6707 0C 10.061 0 6.05691 0.813008 3.65854 2.43902C 1.26016 4.06504 0.0406504 5.91463 0 7.9878C 0 8.47561 0.0609756 8.94309 0.182927 9.39024C 0.304878 9.8374 0.487805 10.2439 0.731707 10.6098C 0.97561 10.9756 1.21951 11.2602 1.46341 11.4634C 1.70732 11.6667 2.0122 11.9106 2.37805 12.1951C 2.7439 12.4797 3.00813 12.622 3.17073 12.622C 3.33333 12.622 3.57724 12.7439 3.90244 12.9878C 4.22764 13.2317 4.36992 13.2927 4.32927 13.1707C 2.9065 14.878 2.19512 16.7276 2.19512 18.7195C 2.19512 20.5488 2.68293 22.1951 3.65854 23.6585L 4.08537 24.2683L 3.59756 24.6951C 2.0122 26.2805 1.21951 28.2317 1.21951 30.5488ZM 27.7439 36.8293L 28.1707 36.8293C 28.1301 36.8699 28.0488 36.8902 27.9268 36.8902L 27.7439 36.8293ZM 13.7195 24.4512C 14.6951 24.4512 15.5081 24.5732 16.1585 24.8171C 16.8089 25.061 17.2967 25.3252 17.622 25.6098C 17.9472 25.8943 18.1911 26.3618 18.3537 27.0122C 18.5163 27.6626 18.5976 28.1911 18.5976 28.5976C 18.5976 29.0041 18.6179 29.6545 18.6585 30.5488C 18.6585 32.0528 18.5976 33.1098 18.4756 33.7195C 18.3537 34.3293 18.0285 34.8984 17.5 35.4268C 16.7276 36.1992 15.4675 36.5854 13.7195 36.5854C 12.622 36.5854 11.7276 36.4431 11.0366 36.1585C 10.3455 35.874 9.85772 35.4472 9.57317 34.878C 9.28862 34.3089 9.10569 33.7805 9.02439 33.2927C 8.94309 32.8049 8.90244 32.1341 8.90244 31.2805L 8.90244 30.5488L 8.90244 29.878C 8.90244 27.6829 9.26829 26.2602 10 25.6098C 10.8537 24.8374 12.0935 24.4512 13.7195 24.4512ZM 15.6707 3.10976C 18.5163 3.10976 20.813 3.55691 22.561 4.45122C 24.3089 5.34553 25.1829 6.50407 25.1829 7.92683C 25.1829 8.17073 25.1626 8.37398 25.122 8.53659C 25.0813 8.69919 24.9594 8.92276 24.7561 9.20732C 24.5528 9.49187 24.2276 9.7561 23.7805 10C 23.3333 10.2439 22.7033 10.4472 21.8902 10.6098C 21.0772 10.7724 20.061 10.8943 18.8415 10.9756L 16.9512 11.0366C 15.6504 11.0366 14.5325 11.0366 13.5976 11.0366C 11.0366 11.0366 9.55285 11.0366 9.14634 11.0366C 8.73984 11.0366 8.25203 10.9146 7.68293 10.6707C 6.62602 10.1829 6.09756 9.30894 6.09756 8.04878C 6.09756 6.58537 6.97155 5.4065 8.71951 4.5122C 10.4675 3.61789 12.7846 3.15041 15.6707 3.10976Z"/>
<path id="path2_stroke" d="M 0 -3C -1.65685 -3 -3 -1.65685 -3 0C -3 1.65685 -1.65685 3 0 3L 0 -3ZM 173 0L 143 -17.3205L 143 17.3205L 173 0ZM 0 3L 146 3L 146 -3L 0 -3L 0 3Z"/>
</defs>
</svg>
