<svg width="295.6" height="157.6" viewBox="0 0 295.6 157.6" version="1.1" xmlns="http://www.w3.org/2000/svg" xmlns:xlink="http://www.w3.org/1999/xlink" xmlns:figma="http://www.figma.com/figma/ns">
<title>RobinHoodVector</title>
<desc>Created using Figma</desc>
<g id="Canvas" transform="matrix(0.4 0 0 0.4 -1324.4 -5297.2)" figma:type="canvas">
<rect x="3311" y="13243" width="739" height="394" fill="#E5E5E5"/>
<mask id="mask0_alpha" mask-type="alpha">
<path d="M 3311 13243L 4050 13243L 4050 13637L 3311 13637L 3311 13243Z" fill="#FFFFFF"/>
</mask>
<g id="RobinHoodVector" style="mix-blend-mode:normal;" mask="url(#mask0_alpha)" figma:type="frame">
<path d="M 3311 13243L 4050 13243L 4050 13637L 3311 13637L 3311 13243Z" fill="#FFFFFF"/>
<g id="Arrow" style="mix-blend-mode:normal;" figma:type="frame">
<g id="Line 9" style="mix-blend-mode:normal;" figma:type="vector">
<use xlink:href="#path0_fill" transform="matrix(-0.822398 0.568913 -0.568629 -0.822594 3685.69 13275.6)" fill="#CEBB00" style="mix-blend-mode:normal;"/>
</g>
<g id="Line 9 (Stroke)" style="mix-blend-mode:normal;" figma:type="vector">
<use xlink:href="#path1_fill" transform="matrix(-0.822398 0.568913 -0.568629 -0.822594 3688.06 13279)" fill="#6D4C3C" style="mix-blend-mode:normal;"/>
</g>
</g>
<g id="-48--create-a-wiki---brilliant" style="mix-blend-mode:normal;" figma:type="frame">
<g id="Group" style="mix-blend-mode:normal;" figma:type="frame">
<g id="Vector" style="mix-blend-mode:normal;" figma:type="vector">
<use xlink:href="#path2_fill" transform="matrix(1 0 0 -1 3579.64 13366)" fill="#333333" style="mix-blend-mode:normal;"/>
</g>
</g>
</g>
<g id="-48--create-a-wiki---brilliant (1)" style="mix-blend-mode:normal;" figma:type="frame">
<g id="Group" style="mix-blend-mode:normal;" figma:type="frame">
<g id="Vector" style="mix-blend-mode:normal;" figma:type="vector">
<use xlink:href="#path3_fill" transform="matrix(1 0 0 -1 3432.64 13586.4)" fill="#333333" style="mix-blend-mode:normal;"/>
</g>
<g id="Vector" style="mix-blend-mode:normal;" figma:type="vector">
<use xlink:href="#path4_fill" transform="matrix(0.707107 0 0 -0.707107 3461.81 13595.3)" fill="#333333" style="mix-blend-mode:normal;"/>
</g>
<g id="Vector" style="mix-blend-mode:normal;" figma:type="vector">
<use xlink:href="#path5_fill" transform="matrix(1 0 0 -1 3510.44 13577.8)" fill="#333333" style="mix-blend-mode:normal;"/>
</g>
<g id="Vector" style="mix-blend-mode:normal;" figma:type="vector">
<use xlink:href="#path6_fill" transform="matrix(1 0 0 -1 3577.3 13600.7)" fill="#333333" style="mix-blend-mode:normal;"/>
</g>
<g id="Vector" style="mix-blend-mode:normal;" figma:type="vector">
<use xlink:href="#path2_fill" transform="matrix(1 0 0 -1 3588.35 13586)" fill="#333333" style="mix-blend-mode:normal;"/>
</g>
<g id="Vector" style="mix-blend-mode:normal;" figma:type="vector">
<use xlink:href="#path6_fill" transform="matrix(1 0 0 -1 3630.18 13600.7)" fill="#333333" style="mix-blend-mode:normal;"/>
</g>
<g id="Group" style="mix-blend-mode:normal;" figma:type="frame">
<g id="Vector" style="mix-blend-mode:normal;" figma:type="vector">
<use xlink:href="#path7_fill" transform="matrix(1 0 0 -1 3651.63 13586.5)" fill="#333333" style="mix-blend-mode:normal;"/>
</g>
<g id="Vector" style="mix-blend-mode:normal;" figma:type="vector">
<use xlink:href="#path8_fill" transform="matrix(1 0 0 -1 3677.8 13586.4)" fill="#333333" style="mix-blend-mode:normal;"/>
</g>
<g id="Vector" style="mix-blend-mode:normal;" figma:type="vector">
<use xlink:href="#path9_fill" transform="matrix(1 0 0 -1 3707.97 13586.4)" fill="#333333" style="mix-blend-mode:normal;"/>
</g>
</g>
<g id="Vector" style="mix-blend-mode:normal;" figma:type="vector">
<use xlink:href="#path10_fill" transform="matrix(1 0 0 -1 3741.61 13586.4)" fill="#333333" style="mix-blend-mode:normal;"/>
</g>
</g>
</g>
<g id="-48--create-a-wiki---brilliant (2)" style="mix-blend-mode:normal;" figma:type="frame">
<g id="Group" style="mix-blend-mode:normal;" figma:type="frame">
<g id="Vector" style="mix-blend-mode:normal;" figma:type="vector">
<use xlink:href="#path3_fill" transform="matrix(1 0 0 -1 3706.64 13440)" fill="#333333" style="mix-blend-mode:normal;"/>
</g>
<g id="Vector" style="mix-blend-mode:normal;" figma:type="vector">
<use xlink:href="#path11_fill" transform="matrix(0.707107 0 0 -0.707107 3735.22 13457)" fill="#333333" style="mix-blend-mode:normal;"/>
</g>
<g id="Vector" style="mix-blend-mode:normal;" figma:type="vector">
<use xlink:href="#path5_fill" transform="matrix(1 0 0 -1 3781.27 13431.4)" fill="#333333" style="mix-blend-mode:normal;"/>
</g>
<g id="Vector" style="mix-blend-mode:normal;" figma:type="vector">
<use xlink:href="#path6_fill" transform="matrix(1 0 0 -1 3848.07 13454.2)" fill="#333333" style="mix-blend-mode:normal;"/>
</g>
<g id="Vector" style="mix-blend-mode:normal;" figma:type="vector">
<use xlink:href="#path2_fill" transform="matrix(1 0 0 -1 3859.12 13439.6)" fill="#333333" style="mix-blend-mode:normal;"/>
</g>
<g id="Vector" style="mix-blend-mode:normal;" figma:type="vector">
<use xlink:href="#path6_fill" transform="matrix(1 0 0 -1 3900.95 13454.2)" fill="#333333" style="mix-blend-mode:normal;"/>
</g>
<g id="Group" style="mix-blend-mode:normal;" figma:type="frame">
<g id="Vector" style="mix-blend-mode:normal;" figma:type="vector">
<use xlink:href="#path9_fill" transform="matrix(1 0 0 -1 3922.4 13440)" fill="#333333" style="mix-blend-mode:normal;"/>
</g>
<g id="Vector" style="mix-blend-mode:normal;" figma:type="vector">
<use xlink:href="#path12_fill" transform="matrix(1 0 0 -1 3945.52 13439.3)" fill="#333333" style="mix-blend-mode:normal;"/>
</g>
<g id="Vector" style="mix-blend-mode:normal;" figma:type="vector">
<use xlink:href="#path13_fill" transform="matrix(1 0 0 -1 3962.07 13439.3)" fill="#333333" style="mix-blend-mode:normal;"/>
</g>
</g>
<g id="Vector" style="mix-blend-mode:normal;" figma:type="vector">
<use xlink:href="#path10_fill" transform="matrix(1 0 0 -1 4005.87 13439.9)" fill="#333333" style="mix-blend-mode:normal;"/>
</g>
</g>
</g>
<g id="Line 3" style="mix-blend-mode:normal;" figma:type="line">
<use xlink:href="#path14_stroke" transform="matrix(0.999995 -0.00322579 0.00322579 0.999995 3387.64 13524)" style="mix-blend-mode:normal;"/>
</g>
<g id="Line 3" style="mix-blend-mode:normal;" figma:type="line">
<use xlink:href="#path15_stroke" transform="matrix(0.839061 -0.544037 0.544037 0.839061 3387.64 13524)" style="mix-blend-mode:normal;"/>
</g>
<g id="Line 3" style="mix-blend-mode:normal;" figma:type="line">
<use xlink:href="#path16_stroke" transform="matrix(-0.00323162 -0.999995 1 -1.0442e-29 3699 13523)" style="mix-blend-mode:normal;"/>
</g>
<g id="-48--create-a-wiki---brilliant (3)" style="mix-blend-mode:normal;" figma:type="frame">
<g id="Group" style="mix-blend-mode:normal;" figma:type="frame">
<g id="Vector" style="mix-blend-mode:normal;" figma:type="vector">
<use xlink:href="#path17_fill" transform="matrix(1 0 0 -1 3491.64 13506)" fill="#333333" style="mix-blend-mode:normal;"/>
</g>
</g>
</g>
</g>
</g>
<defs>
<path id="path0_fill" d="M 387.717 0L 367.956 26.6304L 390.414 51.4561L 324.884 47.3302L 301.362 26.6304L 329.006 0.978799L 387.717 0Z"/>
<path id="path1_fill" fill-rule="evenodd" d="M 35.8221 42.76L 0 20.0803L 37.3038 0L 36.6913 17.6769L 299.994 27.0363L 326.535 2.40898L 327.558 1.45931L 328.946 1.43618L 387.657 0.457378L 395.136 0.332699L 390.642 6.38847L 375.282 27.0872L 383.154 27.0872L 383.154 34.4981L 376.27 34.4981L 393.111 53.1152L 399.237 59.8864L 390.187 59.3167L 324.657 55.1908L 323.42 55.1129L 322.484 54.2895L 299.94 34.4498L 36.4346 25.0831L 35.8221 42.76ZM 311.151 34.4981L 326.348 47.8721L 381.591 51.3503L 366.346 34.4981L 311.151 34.4981ZM 310.771 27.0872L 330.454 8.82284L 380.299 7.99186L 366.129 27.0872L 310.771 27.0872Z"/>
<path id="path2_fill" d="M 22.4062 26.7679C 22.8842 26.6484 24.7563 26.5886 28.0226 26.5886C 30.9305 26.5886 32.5039 26.6484 32.7429 26.7679L 33.1014 26.7679L 33.1014 23.0634L 28.9189 23.0634L 22.8842 9.55996C 20.4543 4.06298 19.0602 1.0755 18.7017 0.597497C 18.383 0.199166 18.0046 0 17.5664 0C 17.4868 0 17.3473 0 17.1482 0C 16.949 0 16.7498 0.0199166 16.5507 0.0597497L 15.6544 0.0597497C 15.0569 0.0597497 14.5789 0.358498 14.2204 0.955996C 13.8619 1.55349 13.0055 3.34599 11.6512 6.33347C 11.0537 7.64797 10.5757 8.72346 10.2172 9.55996L 4.18248 23.0634L 0 23.0634L 0 26.7679L 0.477998 26.7679C 1.0755 26.6484 3.28624 26.5886 7.11022 26.5886C 11.3724 26.5886 13.8619 26.6484 14.5789 26.7679L 15.1167 26.7679L 15.1167 23.0634L 12.2487 23.0634L 15.4154 16.0129C 17.4469 11.4321 18.5224 9.14171 18.6419 9.14171C 18.6419 9.18154 19.6577 11.472 21.6892 16.0129C 23.7206 20.5539 24.7762 22.8842 24.8559 23.0037C 24.8559 23.0435 24.3779 23.0634 23.4219 23.0634L 21.9879 23.0634L 21.9879 26.7679L 22.4062 26.7679Z"/>
<path id="path3_fill" d="M 9.08196 23.3622C 9.08196 24.358 8.70355 24.8559 7.94672 24.8559C 6.99072 24.8559 5.99489 24.2783 4.95923 23.1232C 3.92357 21.968 3.06715 20.1954 2.38999 17.8054C 2.35016 17.7656 2.31032 17.7058 2.27049 17.6262C 2.23066 17.5465 2.21074 17.4868 2.21074 17.4469C 2.21074 17.4071 2.17091 17.3673 2.09124 17.3274C 2.01157 17.2876 1.95183 17.2677 1.91199 17.2677C 1.87216 17.2677 1.79249 17.2677 1.67299 17.2677C 1.55349 17.2677 1.39416 17.2677 1.19499 17.2677L 0.358498 17.2677C 0.119499 17.5067 0 17.6859 0 17.8054C 0 18.0843 0.159333 18.6618 0.477998 19.5382C 0.796663 20.4145 1.27466 21.4502 1.91199 22.6452C 2.54932 23.8402 3.42565 24.8559 4.54098 25.6924C 5.65631 26.5289 6.91105 26.9671 8.30522 27.0069C 9.97821 27.0069 11.2728 26.5289 12.1889 25.5729C 13.1051 24.6169 13.5831 23.5016 13.6229 22.2269C 13.6229 21.5497 13.5632 21.0319 13.4437 20.6734C 13.4437 20.4344 13.1449 19.5581 12.5474 18.0444C 11.9499 16.5308 11.3325 14.7582 10.6952 12.7267C 10.0579 10.6952 9.69938 8.92263 9.61971 7.40897C 9.61971 6.33347 9.71929 5.45714 9.91846 4.77998C 10.4363 3.06715 11.691 2.21074 13.6827 2.21074C 15.1565 2.21074 16.5308 2.8879 17.8054 4.24223C 19.0801 5.59656 20.0759 7.16997 20.7929 8.96246C 21.5099 10.755 22.0875 12.408 22.5257 13.9217C 22.9638 15.4354 23.1829 16.5308 23.1829 17.2079C 23.1829 18.1241 23.0236 18.9208 22.7049 19.5979C 22.3862 20.2751 22.0277 20.7929 21.6294 21.1514C 21.2311 21.5099 20.8726 21.8684 20.5539 22.2269C 20.2352 22.5854 20.0759 23.0236 20.0759 23.5414C 20.0759 24.4177 20.4543 25.2343 21.2112 25.9911C 21.968 26.748 22.7846 27.1264 23.6609 27.1264C 24.4177 27.1264 25.0949 26.7679 25.6924 26.0509C 26.2899 25.3339 26.6086 24.1787 26.6484 22.5854C 26.6484 21.5099 26.4094 19.8568 25.9314 17.6262C 25.4534 15.3955 24.7165 12.9059 23.7207 10.1575C 22.7248 7.40897 21.3107 5.0389 19.4784 3.04724C 17.6461 1.05558 15.5349 0.0398332 13.1449 0C 10.5956 0 8.56413 0.657247 7.05047 1.97174C 5.57664 3.2464 4.83973 5.13848 4.83973 7.64797C 4.83973 8.8828 4.99906 10.1575 5.31773 11.472C 5.63639 12.7864 6.45297 15.1167 7.76747 18.4627C 8.6438 21.012 9.08196 22.6452 9.08196 23.3622Z"/>
<path id="path4_fill" d="M 1.01575 17.9249C 1.29458 19.5979 2.37007 21.5298 4.24223 23.7206C 6.11439 25.9115 8.42472 27.0268 11.1732 27.0666C 12.5674 27.0666 13.842 26.7081 14.9972 25.9911C 16.1523 25.2741 17.0088 24.3779 17.5664 23.3024C 19.2394 25.8119 21.251 27.0666 23.6012 27.0666C 25.075 27.0666 26.3496 26.6285 27.4251 25.7521C 28.5006 24.8758 29.0583 23.7007 29.0981 22.2269C 29.0981 21.0717 28.8193 20.1357 28.2616 19.4187C 27.704 18.7017 27.1662 18.2635 26.6484 18.1042C 26.1306 17.9448 25.6725 17.8652 25.2741 17.8652C 24.5173 17.8652 23.8999 18.0843 23.4219 18.5224C 22.9439 18.9606 22.7049 19.5382 22.7049 20.2552C 22.7049 22.0875 23.7007 23.3422 25.6924 24.0194C 25.2542 24.5372 24.4576 24.7961 23.3024 24.7961C 22.7846 24.7961 22.4062 24.7563 22.1672 24.6766C 20.6535 24.0393 19.5382 22.7248 18.8212 20.7332C 16.4312 11.93 15.2362 6.79155 15.2362 5.31773C 15.2362 4.2024 15.5549 3.40574 16.1922 2.92774C 16.8295 2.44974 17.5266 2.21074 18.2834 2.21074C 19.7573 2.21074 21.2112 2.86799 22.6452 4.18248C 24.0792 5.49698 25.0551 7.11022 25.5729 9.02221C 25.6924 9.42054 25.8119 9.63963 25.9314 9.67946C 26.0509 9.71929 26.3696 9.75912 26.8874 9.79896L 27.1264 9.79896C 27.7239 9.79896 28.0226 9.63963 28.0226 9.32096C 28.0226 9.28113 27.9828 9.06204 27.9031 8.66371C 27.2658 6.39322 26.031 4.38165 24.1986 2.62899C 22.3663 0.87633 20.2352 0 17.8054 0C 15.0171 0 12.9059 1.25474 11.472 3.76423C 9.83879 1.29458 7.96663 0.0597497 5.85548 0.0597497L 5.49698 0.0597497C 3.54515 0.0597497 2.15099 0.577581 1.31449 1.61324C 0.477998 2.64891 0.0398332 3.74432 0 4.89948C 0 6.17414 0.378415 7.2098 1.13525 8.00647C 1.89208 8.80313 2.78832 9.20146 3.82398 9.20146C 5.53681 9.20146 6.39322 8.36496 6.39322 6.69197C 6.39322 5.89531 6.15422 5.19823 5.67623 4.60073C 5.19823 4.00323 4.74015 3.6049 4.30198 3.40574C 3.86382 3.20657 3.6049 3.10699 3.52524 3.10699L 3.34599 3.04724C 3.34599 3.0074 3.46549 2.92774 3.70448 2.80824C 3.94348 2.68874 4.26215 2.54932 4.66048 2.38999C 5.05881 2.23066 5.43723 2.17091 5.79573 2.21074C 7.22972 2.21074 8.46455 3.10699 9.50021 4.89948C 9.85871 5.53681 10.3168 6.89114 10.8745 8.96246C 11.4321 11.0338 11.9898 13.1848 12.5474 15.4154C 13.1051 17.6461 13.4238 18.9606 13.5034 19.3589C 13.7026 20.4344 13.8022 21.2112 13.8022 21.6892C 13.8022 22.8045 13.5034 23.6011 12.9059 24.0791C 12.3084 24.5571 11.6313 24.7961 10.8745 24.7961C 9.28113 24.7961 7.78738 24.1588 6.39322 22.8842C 4.99906 21.6095 4.02315 19.9763 3.46549 17.9847C 3.38582 17.6262 3.28624 17.427 3.16674 17.3872C 3.04724 17.3473 2.72857 17.3075 2.21074 17.2677L 1.37424 17.2677C 1.13525 17.5067 1.01575 17.7258 1.01575 17.9249Z"/>
<path id="path5_fill" d="M 0 12.7864C 0 13.3043 0.278832 13.7026 0.836496 13.9814L 38.8971 13.9814C 39.4946 13.6628 39.7933 13.2644 39.7933 12.7864C 39.7933 12.3483 39.5145 11.9699 38.9568 11.6512L 19.9564 11.5915L 0.955996 11.5915C 0.318665 11.7906 0 12.1889 0 12.7864ZM 0 1.19499C 0 1.79249 0.318665 2.19082 0.955996 2.38999L 38.9568 2.38999C 39.5145 1.99166 39.7933 1.59333 39.7933 1.19499C 39.7933 0.677164 39.4946 0.278832 38.8971 0L 0.836496 0C 0.278832 0.278832 0 0.677164 0 1.19499Z"/>
<path id="path6_fill" d="M 1.19499 0L 1.0755 0C 0.597497 0 0.238999 0.278832 0 0.836497L 0 29.8749L 0.0597497 58.9133C 0.458081 59.4311 0.836496 59.69 1.19499 59.69C 1.71283 59.69 2.11116 59.3913 2.38999 58.7938L 2.38999 0.836497C 2.07132 0.278832 1.71283 0 1.31449 0L 1.19499 0Z"/>
<path id="path7_fill" d="M 20.0759 18.8849C 20.0759 18.8849 19.6577 18.8849 18.8212 18.8849C 17.9847 18.8849 17.2677 19.1837 16.6702 19.7812C 16.0727 20.3786 15.754 21.1355 15.7142 22.0516C 15.7142 22.9678 16.0129 23.7246 16.6104 24.3221C 16.8096 24.5213 16.9092 24.6408 16.9092 24.6806C 16.9092 24.7205 16.71 24.7603 16.3117 24.8001C 15.276 24.9595 14.3001 25.0391 13.3839 25.0391C 11.4321 25.0391 9.83879 24.4018 8.60396 23.1271C 6.7318 21.255 5.79573 18.1281 5.79573 13.7464C 5.79573 10.4801 6.41314 7.91087 7.64797 6.03871C 9.28113 3.60888 11.472 2.39397 14.2204 2.39397C 15.8536 2.39397 17.1681 2.9118 18.1639 3.94747C 19.1598 4.98313 19.8767 6.21796 20.3149 7.65195C 20.3946 7.97062 20.4942 8.16978 20.6137 8.24945C 20.7332 8.32911 21.0518 8.36895 21.5697 8.36895L 22.4062 8.36895C 22.6452 8.12995 22.7647 7.9507 22.7647 7.8312C 22.7647 7.67187 22.685 7.3532 22.5257 6.8752C 22.3663 6.39721 22.0477 5.73996 21.5697 4.90346C 21.0917 4.06697 20.5141 3.31014 19.8369 2.63297C 19.1598 1.95581 18.2038 1.33839 16.9689 0.78073C 15.7341 0.223066 14.3599 -0.0358499 12.8462 0.00398332C 9.42054 0.00398332 6.43306 1.27864 3.88373 3.82797C 1.33441 6.37729 0.0398332 9.58386 0 13.4477C 0 17.5903 1.29458 20.9562 3.88373 23.5454C 6.47289 26.1345 9.48029 27.4291 12.9059 27.4291C 16.3316 27.4291 18.7216 26.8914 20.0759 25.8159C 21.4302 24.7404 22.1074 23.4657 22.1074 21.9919C 22.1074 21.0757 21.7688 20.3388 21.0917 19.7812L 20.0759 18.8849Z"/>
<path id="path8_fill" d="M 0 13.3839C 0 17.1681 1.29458 20.4344 3.88373 23.1829C 6.47289 25.9314 9.59979 27.3256 13.2644 27.3654C 16.8494 27.3654 19.9365 26.0111 22.5257 23.3024C 25.1148 20.5937 26.4293 17.3075 26.4691 13.4437C 26.4691 9.65954 25.1945 6.47289 22.6452 3.88373C 20.0958 1.29458 16.9689 0 13.2644 0C 9.40063 0 6.23389 1.33441 3.76423 4.00323C 1.29458 6.67206 0.0398332 9.79896 0 13.3839ZM 13.2644 2.38999C 18.1241 2.38999 20.5539 5.63639 20.5539 12.1292L 20.5539 14.0412L 20.5539 15.5349C 20.5539 16.4113 20.534 17.1681 20.4942 17.8054C 20.4543 18.4428 20.3149 19.1996 20.0759 20.0759C 19.8369 20.9522 19.5183 21.6692 19.1199 22.2269C 18.7216 22.7846 18.1042 23.3422 17.2677 23.8999C 16.4312 24.4576 15.4553 24.8559 14.3399 25.0949C 14.1408 25.1347 13.8221 25.1546 13.3839 25.1546C 12.1889 25.1546 11.0537 24.9156 9.97821 24.4376C 8.26538 23.5613 7.15005 22.3464 6.63222 20.7929C 6.11439 19.2394 5.85548 17.4071 5.85548 15.2959L 5.85548 14.1009C 5.85548 10.277 6.23389 7.58822 6.99072 6.03472C 8.26538 3.6049 10.3566 2.38999 13.2644 2.38999Z"/>
<path id="path9_fill" d="M 15.6544 19.5382C 15.6544 21.1315 15.1167 22.5057 14.0412 23.6609C 12.9657 24.8161 11.4122 25.3936 9.38071 25.3936C 7.94672 25.3936 6.71189 25.1347 5.67623 24.6169C 4.48123 23.8601 3.88373 22.8244 3.88373 21.5099C 3.8439 21.3107 3.8439 21.0518 3.88373 20.7332C 3.92357 20.4145 4.24223 19.9365 4.83973 19.2992C 5.43723 18.6618 6.29364 18.1639 7.40897 17.8054C 8.12597 17.6063 9.00229 17.427 10.038 17.2677C 11.0736 17.1083 11.9499 16.9291 12.6669 16.7299C 13.3839 16.5308 14.0213 16.2718 14.5789 15.9532C 15.2561 15.6345 15.9133 15.2362 16.5507 14.7582C 17.188 14.2802 17.8253 13.4636 18.4627 12.3084C 19.1 11.1533 19.4386 9.91846 19.4784 8.60396C 19.4784 6.13431 18.7216 4.10282 17.2079 2.50949C 15.6943 0.916163 13.2445 0.0995829 9.85871 0.0597497L 9.38071 0.0597497C 7.30939 0.0597497 5.39739 0.776747 3.64473 2.21074L 3.16674 1.79249L 2.62899 1.25474C 2.38999 1.01575 2.15099 0.796663 1.91199 0.597497L 1.25474 0L 0.776747 0L 0.537748 0C 0.418248 0 0.238999 0.119499 0 0.358498L 0 5.07873L 0 8.54421C 0 9.38071 0.0398332 9.87863 0.119499 10.038C 0.199166 10.1973 0.398332 10.2969 0.716997 10.3367L 1.25474 10.3367C 1.73274 10.3367 2.05141 10.257 2.21074 10.0977C 2.37007 9.93837 2.46966 9.69938 2.50949 9.38071C 2.54932 9.06205 2.68874 8.5243 2.92774 7.76747C 3.16674 7.01064 3.54515 6.17414 4.06298 5.25798C 5.45714 3.22649 7.38905 2.21074 9.85871 2.21074C 13.7225 2.21074 15.6544 3.76423 15.6544 6.87122C 15.6544 8.02638 15.2959 8.96246 14.5789 9.67946C 13.7823 10.6355 12.1292 11.3525 9.61971 11.8305C 7.11022 12.3084 5.45714 12.7665 4.66048 13.2047C 3.22649 13.8819 2.09124 14.798 1.25474 15.9532C 0.418248 17.1083 0 18.3432 0 19.6577C 0 21.2112 0.338582 22.5257 1.01575 23.6012C 1.69291 24.6766 2.54932 25.4733 3.58498 25.9911C 4.62065 26.509 5.61648 26.8675 6.57247 27.0666C 7.52847 27.2658 8.4048 27.3654 9.20146 27.3654L 9.85871 27.3654C 11.452 27.3654 12.8462 27.0666 14.0412 26.4691L 14.9374 25.9911L 15.4752 26.4094C 15.8735 26.7679 16.3117 27.1065 16.7897 27.4251L 17.2677 27.4251L 17.5067 27.4251C 17.6262 27.4251 17.8054 27.3056 18.0444 27.0666L 18.0444 19.1797L 17.6859 18.8212L 16.0129 18.8212C 15.7739 19.0602 15.6544 19.2992 15.6544 19.5382Z"/>
<path id="path10_fill" d="M 0 12.5474C 0 16.6104 0.776747 20.8925 2.33024 25.3936C 3.88373 29.8948 5.99489 33.7785 8.66371 37.0448C 11.3325 40.3112 14.1009 42.1833 16.9689 42.6613C 17.0088 42.6613 17.1681 42.6613 17.4469 42.6613C 17.7258 42.6613 17.9648 42.6812 18.1639 42.7211C 20.3149 42.5617 21.9879 41.5858 23.1829 39.7933C 24.7364 37.4033 25.5131 34.1968 25.5131 30.1736C 25.5131 25.5928 24.6169 20.9323 22.8244 16.1922C 21.0319 11.452 18.7415 7.5683 15.9532 4.54098C 13.1649 1.51366 10.496 0 7.94672 0L 7.52847 0C 6.09447 0 4.85965 0.398332 3.82398 1.19499C 2.78832 1.99166 2.01157 3.04724 1.49374 4.36173C 0.975913 5.67623 0.597497 7.01064 0.358498 8.36496C 0.119499 9.71929 0 11.1135 0 12.5474ZM 20.7929 34.4159C 20.7929 38.4788 19.7373 40.5103 17.6262 40.5103C 16.1922 40.5103 14.798 39.6141 13.4437 37.8216C 12.0894 36.0291 10.974 33.9976 10.0977 31.7271C 9.22138 29.4566 8.54421 27.465 8.06622 25.7521C 7.58822 24.0393 7.3293 23.0435 7.28947 22.7647C 9.24129 22.7248 11.1732 22.7049 13.0852 22.7049L 18.8809 22.7647C 18.9208 22.8045 19.0801 23.4617 19.3589 24.7364C 19.6377 26.0111 19.9564 27.6044 20.3149 29.5164C 20.6734 31.4284 20.8327 33.0615 20.7929 34.4159ZM 4.66048 8.48446C 4.66048 4.26215 5.71606 2.15099 7.82722 2.15099C 8.42471 2.15099 9.06204 2.35016 9.73921 2.74849C 10.4164 3.14682 11.233 3.90365 12.1889 5.01898C 13.1449 6.13431 14.1009 7.86705 15.0569 10.2172C 16.0129 12.5674 16.9689 15.4752 17.9249 18.9407L 18.2237 19.9564L 6.57247 19.9564C 6.57247 19.8369 6.39322 19.0801 6.03472 17.6859C 5.67623 16.2918 5.35756 14.7383 5.07873 13.0254C 4.7999 11.3126 4.66048 9.79896 4.66048 8.48446Z"/>
<path id="path11_fill" d="M 0 29.3969C 0 29.9545 0.298749 30.9105 0.896246 32.2649C 1.49374 33.6192 2.44974 35.0333 3.76423 36.5071C 5.07873 37.9809 6.55256 38.6979 8.18572 38.6581C 9.81888 38.6581 11.1334 38.2 12.1292 37.2838C 13.125 36.3677 13.6429 35.093 13.6827 33.4599C 13.603 32.703 13.5433 32.2848 13.5034 32.2051C 13.5034 32.0856 13.1848 31.1695 12.5474 29.4566C 11.9101 27.7438 11.2529 25.8119 10.5757 23.6609C 9.89854 21.5099 9.57988 19.7971 9.61971 18.5224C 9.61971 16.8096 9.89854 15.6146 10.4562 14.9374C 11.0139 14.2603 11.8504 13.9018 12.9657 13.8619C 13.8819 13.8619 14.7383 14.081 15.5349 14.5192C 16.3316 14.9574 16.949 15.4154 17.3872 15.8934C 17.8253 16.3714 18.3631 17.0287 19.0004 17.8652C 19.0004 17.905 19.1 18.3033 19.2992 19.0602C 19.4983 19.817 19.7772 20.9921 20.1357 22.5854C 20.4942 24.1787 20.8726 25.6526 21.2709 27.0069C 22.7846 32.9819 23.6211 36.1088 23.7804 36.3876C 24.2982 37.4631 25.1546 38.0008 26.3496 38.0008C 26.8675 38.0008 27.2857 37.8614 27.6044 37.5826C 27.923 37.3038 28.1421 37.0648 28.2616 36.8656C 28.3811 36.6664 28.421 36.4872 28.3811 36.3278C 28.3811 35.81 27.4052 31.6275 25.4534 23.7804C 23.5016 15.9333 22.3862 11.6313 22.1074 10.8745C 20.9921 7.5683 19.0602 4.93931 16.3117 2.98749C 13.5632 1.03566 10.8147 0.0398332 8.06622 0C 6.27372 0 4.70031 0.438165 3.34599 1.31449C 1.99166 2.19082 1.31449 3.50532 1.31449 5.25798C 1.31449 6.13431 1.45391 6.87122 1.73274 7.46872C 2.01157 8.06622 2.38999 8.50438 2.86799 8.78321C 3.34599 9.06205 3.74432 9.26121 4.06298 9.38071C 4.38165 9.50021 4.72023 9.55996 5.07873 9.55996C 6.83139 9.55996 7.70772 8.72346 7.70772 7.05047C 7.70772 6.25381 7.46872 5.55673 6.99072 4.95923C 6.51272 4.36173 6.05464 3.9634 5.61648 3.76423C 5.17831 3.56507 4.9194 3.46549 4.83973 3.46549L 4.66048 3.40574C 4.74015 3.20657 5.11856 2.96757 5.79573 2.68874C 6.47289 2.40991 7.15005 2.27049 7.82722 2.27049L 8.30522 2.27049C 8.98238 2.27049 9.50021 2.31032 9.85871 2.38999C 11.1732 2.74849 12.3881 3.50532 13.5034 4.66048C 14.6188 5.81564 15.4752 7.05047 16.0727 8.36497C 16.6702 9.67946 17.1283 10.7948 17.4469 11.711C 17.7656 12.6271 17.9249 13.2246 17.9249 13.5034L 17.5664 13.2644C 17.3274 13.1051 16.949 12.886 16.4312 12.6072C 15.9134 12.3284 15.3955 12.0894 14.8777 11.8902C 14.081 11.691 13.3043 11.5915 12.5474 11.5915C 10.7151 11.5915 9.10188 12.0296 7.70772 12.9059C 6.31356 13.7823 5.39739 15.1964 4.95923 17.1482C 4.9194 17.427 4.89948 18.0444 4.89948 19.0004C 4.89948 21.2709 5.59656 24.2385 6.99072 27.9031C 8.38488 31.5678 9.08196 33.898 9.08196 34.8939C 9.08196 34.9337 9.08196 34.9735 9.08196 35.0134C 9.08196 35.3719 9.08196 35.6109 9.08196 35.7304C 9.08196 35.8499 9.0023 35.9893 8.84296 36.1486C 8.68363 36.3079 8.46455 36.3876 8.18572 36.3876L 7.94672 36.3876C 7.03055 36.3876 6.19406 36.0092 5.43723 35.2524C 4.6804 34.4955 4.0829 33.6789 3.64473 32.8026C 3.20657 31.9263 2.86799 31.0898 2.62899 30.2931C 2.38999 29.4965 2.23066 29.0583 2.15099 28.9786C 2.07132 28.899 1.75266 28.8591 1.19499 28.8591L 0.358498 28.8591C 0.119499 29.0981 0 29.2774 0 29.3969Z"/>
<path id="path12_fill" d="M 2.56924 36.3876C 2.56924 37.5029 2.92774 38.3793 3.64473 39.0166C 4.36173 39.6539 5.23806 39.9726 6.27372 39.9726C 7.18989 39.8929 7.98655 39.5543 8.66371 38.9568C 9.34088 38.3593 9.67946 37.5029 9.67946 36.3876C 9.67946 35.1926 9.34088 34.2964 8.66371 33.6989C 7.98655 33.1014 7.15005 32.8026 6.15422 32.8026C 5.1584 32.8026 4.3219 33.1014 3.64473 33.6989C 2.96757 34.2964 2.60907 35.1926 2.56924 36.3876ZM 13.2047 0C 12.6072 0.119499 10.5359 0.179249 6.99072 0.179249C 6.55256 0.179249 5.81564 0.179249 4.77998 0.179249C 3.74432 0.179249 2.74849 0.139416 1.79249 0.0597497L 0.477998 0L 0 0L 0 2.74849L 0.955996 2.74849C 2.07132 2.74849 3.04724 2.80824 3.88373 2.92774C 4.24223 3.08707 4.46131 3.30615 4.54098 3.58498C 4.62065 3.86382 4.66048 4.70031 4.66048 6.09447L 4.66048 12.2487L 4.66048 17.5067C 4.66048 19.578 4.62065 20.8925 4.54098 21.4502C 4.46131 22.0078 4.18248 22.3862 3.70448 22.5854C 3.14682 22.8642 2.21074 23.0037 0.896246 23.0037L 0.238999 23.0037L 0.238999 24.3779C 0.238999 25.2941 0.278832 25.7521 0.358498 25.7521L 0.955996 25.8119C 1.35433 25.8517 1.91199 25.8916 2.62899 25.9314C 3.34599 25.9712 4.06298 26.0111 4.77998 26.0509C 5.45714 26.0907 6.17414 26.1306 6.93097 26.1704C 7.6878 26.2102 8.26538 26.27 8.66371 26.3496C 9.06205 26.4293 9.28113 26.4492 9.32096 26.4094L 9.50021 26.4094L 9.50021 3.70448C 9.69938 3.30615 9.93837 3.06715 10.2172 2.98749C 10.496 2.90782 11.1931 2.82815 12.3084 2.74849L 13.6827 2.74849L 13.6827 0L 13.2047 0Z"/>
<path id="path13_fill" d="M 0.955996 2.74849L 1.79249 2.74849C 3.34599 2.74849 4.28207 3.02732 4.60073 3.58498L 4.60073 4.06298C 4.60073 4.42148 4.60073 4.87956 4.60073 5.43723C 4.60073 5.99489 4.60073 6.61231 4.60073 7.28947C 4.60073 7.96663 4.62065 8.74338 4.66048 9.61971C 4.70031 10.496 4.70031 11.3325 4.66048 12.1292C 4.66048 13.364 4.66048 14.6785 4.66048 16.0727C 4.66048 17.4668 4.64056 18.6419 4.60073 19.5979L 4.60073 20.9722C 4.48123 21.729 4.2024 22.2269 3.76423 22.4659C 3.32607 22.7049 2.42982 22.8842 1.0755 23.0037L 0 23.0037L 0 24.3779C 0 25.2941 0.0398332 25.7521 0.119499 25.7521L 0.716997 25.8119C 1.11533 25.8517 1.67299 25.8916 2.38999 25.9314C 3.10699 25.9712 3.8439 26.0111 4.60073 26.0509C 5.27789 26.0907 5.99489 26.1306 6.75172 26.1704C 7.50855 26.2102 8.08613 26.27 8.48446 26.3496C 8.8828 26.4293 9.10188 26.4492 9.14171 26.4094L 9.32096 26.4094L 9.32096 24.0194C 9.32096 22.5057 9.34088 21.7489 9.38071 21.7489C 9.42054 21.7489 9.52013 21.8485 9.67946 22.0477C 9.83879 22.2468 10.0778 22.5456 10.3965 22.9439C 10.7151 23.3422 11.0935 23.7007 11.5317 24.0194C 11.9699 24.3381 12.5474 24.7165 13.2644 25.1546C 13.9814 25.5928 14.7383 25.9115 15.5349 26.1106C 16.3316 26.3098 17.3473 26.4094 18.5822 26.4094C 23.1232 26.2501 25.6526 23.9995 26.1704 19.6577C 26.2102 19.3788 26.2301 16.6104 26.2301 11.3525L 26.2301 6.21397C 26.2301 4.70031 26.27 3.80407 26.3496 3.52523C 26.4293 3.2464 26.6484 3.04724 27.0069 2.92774C 27.8434 2.80824 28.8193 2.74849 29.9346 2.74849L 30.8906 2.74849L 30.8906 0L 30.4126 0L 28.9786 0.0597497C 28.0625 0.0995829 27.0666 0.119499 25.9911 0.119499C 24.9156 0.119499 24.1588 0.139416 23.7206 0.179249C 19.6178 0.179249 17.3872 0.119499 17.0287 0L 16.5507 0L 16.5507 2.74849L 17.5067 2.74849C 19.9365 2.74849 21.1514 3.06715 21.1514 3.70448C 21.1912 3.78415 21.2112 6.53264 21.2112 11.9499C 21.1713 17.3274 21.1315 20.1755 21.0917 20.4942C 20.8527 21.6095 20.4543 22.446 19.8967 23.0037C 19.339 23.5613 18.861 23.8999 18.4627 24.0194C 18.0643 24.1389 17.5465 24.1787 16.9092 24.1389C 15.1167 24.1389 13.5433 23.4617 12.1889 22.1074C 11.1135 21.0319 10.4363 19.9365 10.1575 18.8212C 9.87862 17.7058 9.71929 16.0528 9.67946 13.8619L 9.67946 10.038L 9.67946 6.45297C 9.67946 5.25798 9.69938 4.46131 9.73921 4.06298C 9.77904 3.66465 9.83879 3.40574 9.91846 3.28624C 9.99812 3.16674 10.1774 3.04724 10.4562 2.92774C 11.2927 2.80824 12.2686 2.74849 13.3839 2.74849L 14.3399 2.74849L 14.3399 0L 13.8619 0L 12.4877 0.0597497C 11.5317 0.0995829 10.516 0.119499 9.44046 0.119499C 8.36496 0.119499 7.60813 0.139416 7.16997 0.179249C 3.06715 0.179249 0.836496 0.119499 0.477998 0L 0 0L 0 2.74849L 0.955996 2.74849Z"/>
<path id="path14_stroke" d="M 0 0L 310.002 0L 310.002 -3L 0 -3L 0 0Z"/>
<path id="path15_stroke" d="M 0 0L 369.46 0L 369.46 -3L 0 -3L 0 0Z"/>
<path id="path16_stroke" d="M 0 0L 200.001 0L 200.001 -3L 0 -3L 0 0Z"/>
<path id="path17_fill" d="M 0 13.2168C 0 17.4965 0.818182 22.007 2.45455 26.7483C 4.09091 31.4895 6.31469 35.5804 9.12587 39.021C 11.9371 42.4615 14.8531 44.4336 17.8741 44.9371C 17.9161 44.9371 18.0839 44.9371 18.3776 44.9371C 18.6713 44.9371 18.9231 44.958 19.1329 45C 21.3986 44.8322 23.1608 43.8042 24.4196 41.9161C 26.0559 39.3986 26.8741 36.021 26.8741 31.7832C 26.8741 26.958 25.9301 22.049 24.042 17.0559C 22.1538 12.0629 19.7413 7.97203 16.8042 4.78322C 13.8671 1.59441 11.0559 0 8.37063 0L 7.93007 0C 6.41958 0 5.11888 0.41958 4.02797 1.25874C 2.93706 2.0979 2.11888 3.20979 1.57343 4.59441C 1.02797 5.97902 0.629371 7.38462 0.377622 8.81119C 0.125874 10.2378 0 11.7063 0 13.2168ZM 21.9021 36.2517C 21.9021 40.5315 20.7902 42.6713 18.5664 42.6713C 17.0559 42.6713 15.5874 41.7273 14.1608 39.8392C 12.7343 37.951 11.5594 35.8112 10.6364 33.4196C 9.71329 31.028 9 28.9301 8.4965 27.1259C 7.99301 25.3217 7.72028 24.2727 7.67832 23.979C 9.73427 23.9371 11.7692 23.9161 13.7832 23.9161L 19.8881 23.979C 19.9301 24.021 20.0979 24.7133 20.3916 26.0559C 20.6853 27.3986 21.021 29.0769 21.3986 31.0909C 21.7762 33.1049 21.9441 34.8252 21.9021 36.2517ZM 4.90909 8.93706C 4.90909 4.48951 6.02098 2.26573 8.24476 2.26573C 8.87413 2.26573 9.54545 2.47552 10.2587 2.8951C 10.972 3.31469 11.8322 4.11189 12.8392 5.28671C 13.8462 6.46154 14.8531 8.28671 15.8601 10.7622C 16.8671 13.2378 17.8741 16.3007 18.8811 19.951L 19.1958 21.021L 6.92308 21.021C 6.92308 20.8951 6.73427 20.0979 6.35664 18.6294C 5.97902 17.1608 5.64336 15.5245 5.34965 13.7203C 5.05594 11.9161 4.90909 10.3217 4.90909 8.93706Z"/>
</defs>
</svg>
